<svg xmlns="http://www.w3.org/2000/svg" xmlns:xlink="http://www.w3.org/1999/xlink" version="1.1" x="0px" y="0px" viewBox="0 0 100 125" enable-background="new 0 0 100 100" xml:space="preserve"><g><path d="M55.855,67.374c3.378,0.484,6.508-1.867,6.99-5.244c0.485-3.363-1.867-6.495-5.255-6.979   c-3.38-0.47-6.503,1.88-6.987,5.246C50.133,63.771,52.481,66.904,55.855,67.374z"/><path d="M47.877,86.859c0.793-0.558,1.313-1.477,1.313-2.52c0,0-0.003-20.431-0.004-20.445c0.032-1.335-0.209-2.895-1.007-4.597   c-0.745-1.595-2.408-4.254-7.754-6.926c-7.075-3.539-13.758-2.047-15.314-1.638c-2.068,0.485-5.786,2.633-5.786,6.762L19.3,73.437   L2.358,83.063c-1.481,0.841-2,2.724-1.158,4.204c0.568,0.999,1.611,1.561,2.685,1.561c0.516,0,1.039-0.13,1.52-0.403l19.382-11.013   c0.846-0.481,1.417-1.332,1.537-2.299l0.995-7.962l3.859,4.434L19.75,83.135c-0.045,0.045-1.918,1.973-0.149,4.177   c1.694,2.108,4.295,0.377,4.349,0.332l14.463-12.407c1.094-0.973,1.521-2.226,0.752-3.714l-4.619-9.28   c0.433,0.11,0.872,0.24,1.313,0.41c3.227,1.238,6.327,3.637,7.152,4.387l0.012,0.004V84.34c0,1.043,0.521,1.962,1.313,2.52h-7.789   v1.505h30.283v-1.505H47.877z"/><circle cx="78.024" cy="17.572" r="5.05"/><path d="M85.034,69.85c0.188-0.372,0.306-0.787,0.306-1.233l0.012-40.184h8.187c1.277,0,2.313-1.036,2.313-2.313v-13   c0-1.277-1.036-2.313-2.313-2.313c-0.729,0-1.371,0.344-1.795,0.872V5.768h-2.846v8.498h2.328v9.541L72.238,23.8   c-4.005,0-7.09,2.821-7.09,6.344v16.358c0,2.917,4.1,2.917,4.1,0V30.544h2.434l0.012,38.072c0,1.503,1.209,2.72,2.706,2.736v0.004   h24.893V69.85H85.034z M79.852,47.185l0.01,21.432c0,0.446,0.116,0.861,0.306,1.233h-3.3c0.188-0.372,0.305-0.787,0.305-1.233   l-0.009-21.432H79.852z"/><path d="M55.855,67.374c3.378,0.484,6.508-1.867,6.99-5.244c0.485-3.363-1.867-6.495-5.255-6.979   c-3.38-0.47-6.503,1.88-6.987,5.246C50.133,63.771,52.481,66.904,55.855,67.374z"/></g><text x="0" y="115" fill="#000000" font-size="5px" font-weight="bold" font-family="'Helvetica Neue', Helvetica, Arial-Unicode, Arial, Sans-serif">Created by Luis Prado</text><text x="0" y="120" fill="#000000" font-size="5px" font-weight="bold" font-family="'Helvetica Neue', Helvetica, Arial-Unicode, Arial, Sans-serif">from the Noun Project</text></svg>